<svg width="20" height="20" viewBox="0 0 20 20" fill="none" xmlns="http://www.w3.org/2000/svg">
<rect x="0.208333" y="0.208333" width="19.5833" height="19.5833" rx="9.79167" fill="#079455"/>
<rect x="0.208333" y="0.208333" width="19.5833" height="19.5833" rx="9.79167" stroke="#E9EAEB" stroke-width="0.416667"/>
<path d="M15.0942 8.51074H13.2222V9.65771H15.0942V8.51074ZM15.0942 9.98437H13.2222V11.1548H15.0942V9.98437ZM15.0942 7.03564H13.2222V8.18262H15.0942V7.03564ZM15.0942 12.8613H13.2222V14.0317H15.0942V12.8613ZM15.96 5.8667H11.4688C11.4219 5.8667 11.375 5.8667 11.3281 5.89014V4.65088L4.66016 5.98389V15.0381L11.3047 16.3477V15.1553C11.3516 15.1787 11.3984 15.1787 11.4453 15.1787H15.9365C16.1709 15.1787 16.335 14.9912 16.335 14.7583V6.28711C16.3569 6.0542 16.1709 5.8667 15.96 5.8667ZM9.15283 12.4409L8.35742 12.394L7.74951 10.8735L7.09473 12.3003L6.34619 12.2534L7.30566 10.522L6.43994 8.62647L7.18848 8.57959L7.70264 10.0063H7.79639L8.35742 8.48584L9.15283 8.43896L8.14648 10.4502L9.15283 12.4409ZM15.8428 14.6631H11.3047V14.0317H12.8252V12.8613H11.3047V12.6035H12.8252V11.4565H11.3047V11.1519H12.8252V9.98145H11.3047V9.65332H12.8252V8.50635H11.3047V8.20166H12.8252V7.05469H11.3047V6.3999H15.8428V14.6631ZM15.0942 11.458H13.2222V12.605H15.0942V11.458Z" fill="#F2FFF9"/>
</svg>
