<svg width="19" height="19" viewBox="0 0 19 19" fill="none" xmlns="http://www.w3.org/2000/svg">
<mask id="mask0_7674_34407" style="mask-type:luminance" maskUnits="userSpaceOnUse" x="0" y="0" width="19" height="19">
<path d="M18.4231 0H0V18.0755H18.4231V0Z" fill="white"/>
</mask>
<g mask="url(#mask0_7674_34407)">
<path d="M2.51169 5.17981L0.663183 6.9728C0.663183 6.9728 -0.828979 8.52125 0.663183 10.5445C2.15535 12.5678 5.18422 15.1168 5.18422 15.1168L6.9659 13.1727C6.9659 13.1727 8.39125 11.5308 6.9659 9.78799C5.7441 8.29399 2.51169 5.17981 2.51169 5.17981Z" fill="black"/>
<path d="M2.75911 4.93492L4.60761 6.7279C4.60761 6.7279 6.204 8.17525 8.28991 6.7279C10.3758 5.28055 13.0038 2.34265 13.0038 2.34265L10.9994 0.614464C10.9994 0.614464 9.30681 -0.76808 7.50998 0.614464C5.96971 1.79957 2.75911 4.93492 2.75911 4.93492Z" fill="black"/>
<path d="M15.9124 12.6974L17.7609 10.9044C17.7609 10.9044 19.253 9.35598 17.7609 7.33271C16.2687 5.30945 13.2398 2.76038 13.2398 2.76038L11.4581 4.70458C11.4581 4.70458 10.0328 6.34635 11.4581 8.08923C12.6799 9.58319 15.9124 12.6974 15.9124 12.6974Z" fill="black"/>
<path d="M5.31185 15.639L7.16035 17.432C7.16035 17.432 8.75674 18.8794 10.8427 17.432C12.9286 15.9847 15.5566 13.0468 15.5566 13.0468L13.5521 11.3186C13.5521 11.3186 11.8595 9.936 10.0627 11.3186C8.52245 12.5037 5.31185 15.639 5.31185 15.639Z" fill="black"/>
</g>
</svg>
