<svg width="156" height="26" viewBox="0 0 156 26" fill="none" xmlns="http://www.w3.org/2000/svg">
<path d="M119.124 19H115.357V7.36364H119.243C120.383 7.36364 121.362 7.59659 122.18 8.0625C122.999 8.52462 123.625 9.18939 124.061 10.0568C124.5 10.9205 124.72 11.9564 124.72 13.1648C124.72 14.3769 124.499 15.4186 124.055 16.2898C123.616 17.161 122.98 17.8314 122.146 18.3011C121.313 18.767 120.305 19 119.124 19ZM117.112 17.4659H119.027C119.913 17.4659 120.65 17.2992 121.237 16.9659C121.824 16.6288 122.264 16.142 122.555 15.5057C122.847 14.8655 122.993 14.0852 122.993 13.1648C122.993 12.2519 122.847 11.4773 122.555 10.8409C122.268 10.2045 121.838 9.72159 121.266 9.39205C120.694 9.0625 119.983 8.89773 119.135 8.89773H117.112V17.4659ZM130.443 19.1761C129.625 19.1761 128.911 18.9886 128.301 18.6136C127.691 18.2386 127.218 17.714 126.881 17.0398C126.544 16.3655 126.375 15.5777 126.375 14.6761C126.375 13.7708 126.544 12.9792 126.881 12.3011C127.218 11.6231 127.691 11.0966 128.301 10.7216C128.911 10.3466 129.625 10.1591 130.443 10.1591C131.261 10.1591 131.975 10.3466 132.585 10.7216C133.195 11.0966 133.669 11.6231 134.006 12.3011C134.343 12.9792 134.511 13.7708 134.511 14.6761C134.511 15.5777 134.343 16.3655 134.006 17.0398C133.669 17.714 133.195 18.2386 132.585 18.6136C131.975 18.9886 131.261 19.1761 130.443 19.1761ZM130.449 17.75C130.979 17.75 131.419 17.6098 131.767 17.3295C132.116 17.0492 132.373 16.6761 132.54 16.2102C132.71 15.7443 132.795 15.2311 132.795 14.6705C132.795 14.1136 132.71 13.6023 132.54 13.1364C132.373 12.6667 132.116 12.2898 131.767 12.0057C131.419 11.7216 130.979 11.5795 130.449 11.5795C129.915 11.5795 129.472 11.7216 129.119 12.0057C128.771 12.2898 128.511 12.6667 128.341 13.1364C128.174 13.6023 128.091 14.1136 128.091 14.6705C128.091 15.2311 128.174 15.7443 128.341 16.2102C128.511 16.6761 128.771 17.0492 129.119 17.3295C129.472 17.6098 129.915 17.75 130.449 17.75ZM140.084 19.1761C139.239 19.1761 138.512 18.9848 137.902 18.6023C137.296 18.2159 136.83 17.6837 136.504 17.0057C136.179 16.3277 136.016 15.5511 136.016 14.6761C136.016 13.7898 136.182 13.0076 136.516 12.3295C136.849 11.6477 137.319 11.1155 137.925 10.733C138.531 10.3504 139.245 10.1591 140.067 10.1591C140.73 10.1591 141.321 10.2822 141.839 10.5284C142.358 10.7708 142.777 11.1117 143.095 11.5511C143.417 11.9905 143.608 12.5038 143.669 13.0909H142.016C141.925 12.6818 141.716 12.3295 141.391 12.0341C141.069 11.7386 140.637 11.5909 140.095 11.5909C139.622 11.5909 139.207 11.7159 138.851 11.9659C138.499 12.2121 138.224 12.5644 138.027 13.0227C137.83 13.4773 137.732 14.0152 137.732 14.6364C137.732 15.2727 137.828 15.822 138.021 16.2841C138.214 16.7462 138.487 17.1042 138.839 17.358C139.196 17.6117 139.614 17.7386 140.095 17.7386C140.417 17.7386 140.709 17.6799 140.97 17.5625C141.235 17.4413 141.457 17.2689 141.635 17.0455C141.817 16.822 141.944 16.553 142.016 16.2386H143.669C143.608 16.803 143.425 17.3068 143.118 17.75C142.811 18.1932 142.4 18.5417 141.885 18.7955C141.374 19.0492 140.773 19.1761 140.084 19.1761ZM152.026 12.4034L150.486 12.6761C150.421 12.4792 150.319 12.2917 150.179 12.1136C150.043 11.9356 149.857 11.7898 149.622 11.6761C149.387 11.5625 149.094 11.5057 148.741 11.5057C148.26 11.5057 147.859 11.6136 147.537 11.8295C147.215 12.0417 147.054 12.3163 147.054 12.6534C147.054 12.9451 147.162 13.1799 147.378 13.358C147.594 13.536 147.942 13.6818 148.423 13.7955L149.81 14.1136C150.613 14.2992 151.211 14.5852 151.605 14.9716C151.999 15.358 152.196 15.8598 152.196 16.4773C152.196 17 152.045 17.4659 151.741 17.875C151.442 18.2803 151.024 18.5985 150.486 18.8295C149.952 19.0606 149.332 19.1761 148.628 19.1761C147.651 19.1761 146.853 18.9678 146.236 18.5511C145.618 18.1307 145.24 17.5341 145.099 16.7614L146.741 16.5114C146.844 16.9394 147.054 17.2633 147.372 17.483C147.69 17.6989 148.105 17.8068 148.616 17.8068C149.173 17.8068 149.618 17.6913 149.952 17.4602C150.285 17.2254 150.452 16.9394 150.452 16.6023C150.452 16.3295 150.349 16.1004 150.145 15.9148C149.944 15.7292 149.635 15.589 149.219 15.4943L147.741 15.1705C146.927 14.9848 146.325 14.6894 145.935 14.2841C145.548 13.8788 145.355 13.3655 145.355 12.7443C145.355 12.2292 145.499 11.7784 145.787 11.392C146.075 11.0057 146.473 10.7045 146.98 10.4886C147.488 10.2689 148.069 10.1591 148.724 10.1591C149.668 10.1591 150.41 10.3636 150.952 10.7727C151.493 11.178 151.851 11.7216 152.026 12.4034Z" fill="#84CAFF"/>
<g clip-path="url(#clip0_10632_50666)">
<path d="M34.8672 12.9493C34.8672 11.7397 35.1513 10.6545 35.7194 9.69386C36.2996 8.73323 37.0792 7.98607 38.0583 7.45239C39.0496 6.90684 40.1315 6.63407 41.3039 6.63407C42.6456 6.63407 43.8363 6.96021 44.8758 7.61249C45.9274 8.25292 46.689 9.1661 47.1604 10.3521H44.6764C44.35 9.69979 43.8967 9.21355 43.3165 8.89334C42.7363 8.57313 42.0654 8.41302 41.3039 8.41302C40.4698 8.41302 39.7265 8.59684 39.0737 8.96449C38.421 9.33215 37.9073 9.85989 37.5325 10.5478C37.1699 11.2356 36.9886 12.0361 36.9886 12.9493C36.9886 13.8625 37.1699 14.663 37.5325 15.3509C37.9073 16.0388 38.421 16.5725 39.0737 16.952C39.7265 17.3197 40.4698 17.5034 41.3039 17.5034C42.0654 17.5034 42.7363 17.3433 43.3165 17.0231C43.8967 16.7029 44.35 16.2167 44.6764 15.5644H47.1604C46.689 16.7504 45.9274 17.6635 44.8758 18.304C43.8363 18.9444 42.6456 19.2646 41.3039 19.2646C40.1193 19.2646 39.0375 18.9978 38.0583 18.4641C37.0792 17.9185 36.2996 17.1654 35.7194 16.2048C35.1513 15.2442 34.8672 14.159 34.8672 12.9493ZM51.6468 10.779C51.9491 10.2809 52.348 9.89547 52.8435 9.6227C53.3512 9.33807 53.9496 9.19576 54.6386 9.19576V11.2949H54.1127C53.303 11.2949 52.6865 11.4965 52.2633 11.8998C51.8524 12.303 51.6468 13.0027 51.6468 13.9989V19.1579H49.5798V9.35586H51.6468V10.779ZM55.8496 14.2124C55.8496 13.228 56.0551 12.3564 56.4661 11.5973C56.8891 10.8383 57.4573 10.2513 58.1705 9.83618C58.8957 9.40923 59.6935 9.19576 60.5638 9.19576C61.3495 9.19576 62.0325 9.34994 62.6127 9.65828C63.205 9.95478 63.6765 10.3284 64.027 10.779V9.35586H66.1121V19.1579H64.027V17.6991C63.6765 18.1617 63.1989 18.5471 62.5946 18.8554C61.9902 19.1637 61.3012 19.318 60.5276 19.318C59.6694 19.318 58.8836 19.1045 58.1705 18.6775C57.4573 18.2387 56.8891 17.6339 56.4661 16.863C56.0551 16.0803 55.8496 15.1967 55.8496 14.2124ZM64.027 14.248C64.027 13.572 63.8819 12.9849 63.5918 12.4868C63.3138 11.9887 62.9451 11.6092 62.4858 11.3483C62.0265 11.0874 61.5308 10.9569 60.999 10.9569C60.4672 10.9569 59.9715 11.0874 59.5122 11.3483C59.0529 11.5973 58.6781 11.9709 58.388 12.469C58.1101 12.9553 57.971 13.5364 57.971 14.2124C57.971 14.8884 58.1101 15.4813 58.388 15.9913C58.6781 16.5013 59.0529 16.8927 59.5122 17.1654C59.9836 17.4264 60.4792 17.5568 60.999 17.5568C61.5308 17.5568 62.0265 17.4264 62.4858 17.1654C62.9451 16.9045 63.3138 16.525 63.5918 16.0269C63.8819 15.5169 64.027 14.924 64.027 14.248ZM68.1379 14.2124C68.1379 13.228 68.3435 12.3564 68.7544 11.5973C69.1776 10.8383 69.7457 10.2513 70.4588 9.83618C71.184 9.40923 71.988 9.19576 72.8703 9.19576C73.523 9.19576 74.1638 9.33807 74.7922 9.6227C75.433 9.89547 75.9407 10.2631 76.3153 10.7257V5.99365H78.4004V19.1579H76.3153V17.6813C75.9769 18.1558 75.5055 18.5471 74.901 18.8554C74.3088 19.1637 73.6258 19.318 72.8522 19.318C71.9818 19.318 71.184 19.1045 70.4588 18.6775C69.7457 18.2387 69.1776 17.6339 68.7544 16.863C68.3435 16.0803 68.1379 15.1967 68.1379 14.2124ZM76.3153 14.248C76.3153 13.572 76.1702 12.9849 75.8801 12.4868C75.6021 11.9887 75.2335 11.6092 74.7741 11.3483C74.3148 11.0874 73.8193 10.9569 73.2873 10.9569C72.7555 10.9569 72.2599 11.0874 71.8005 11.3483C71.3412 11.5973 70.9665 11.9709 70.6764 12.469C70.3984 12.9553 70.2593 13.5364 70.2593 14.2124C70.2593 14.8884 70.3984 15.4813 70.6764 15.9913C70.9665 16.5013 71.3412 16.8927 71.8005 17.1654C72.2719 17.4264 72.7676 17.5568 73.2873 17.5568C73.8193 17.5568 74.3148 17.4264 74.7741 17.1654C75.2335 16.9045 75.6021 16.525 75.8801 16.0269C76.1702 15.5169 76.3153 14.924 76.3153 14.248ZM83.1824 5.99365V19.1579H81.1154V5.99365H83.1824ZM98.2033 16.6318H92.927L92.0204 19.1579H89.8628L94.3775 6.77639H96.7709L101.286 19.1579H99.1099L98.2033 16.6318ZM97.6231 14.9773L95.5742 9.23134L93.5072 14.9773H97.6231ZM105.316 6.79418V19.1579H103.249V6.79418H105.316Z" fill="white"/>
<mask id="mask0_10632_50666" style="mask-type:luminance" maskUnits="userSpaceOnUse" x="0" y="0" width="27" height="26">
<path d="M26.5 0H0V26H26.5V0Z" fill="white"/>
</mask>
<g mask="url(#mask0_10632_50666)">
<path d="M3.61284 7.45081L0.953932 10.0299C0.953932 10.0299 -1.19241 12.2572 0.953932 15.1674C3.10028 18.0778 7.45704 21.7443 7.45704 21.7443L10.0198 18.9478C10.0198 18.9478 12.0701 16.5862 10.0198 14.0793C8.26239 11.9303 3.61284 7.45081 3.61284 7.45081Z" fill="white"/>
<path d="M3.96875 7.09845L6.62766 9.6775C6.62766 9.6775 8.92393 11.7594 11.9243 9.6775C14.9248 7.59561 18.7049 3.3697 18.7049 3.3697L15.8217 0.883853C15.8217 0.883853 13.387 -1.10482 10.8025 0.883853C8.58692 2.58852 3.96875 7.09845 3.96875 7.09845Z" fill="white"/>
<path d="M22.8885 18.2641L25.5475 15.6851C25.5475 15.6851 27.6938 13.4578 25.5475 10.5475C23.4011 7.6372 19.0444 3.97058 19.0444 3.97058L16.4815 6.76715C16.4815 6.76715 14.4313 9.12869 16.4815 11.6357C18.2389 13.7846 22.8885 18.2641 22.8885 18.2641Z" fill="white"/>
<path d="M7.64062 22.4955L10.2995 25.0745C10.2995 25.0745 12.5958 27.1564 15.5963 25.0745C18.5966 22.9927 22.3768 18.7668 22.3768 18.7668L19.4936 16.2809C19.4936 16.2809 17.0589 14.2922 14.4743 16.2809C12.2588 17.9856 7.64062 22.4955 7.64062 22.4955Z" fill="white"/>
</g>
</g>
<defs>
<clipPath id="clip0_10632_50666">
<rect width="106" height="26" fill="white"/>
</clipPath>
</defs>
</svg>
