<svg width="106" height="26" viewBox="0 0 106 26" fill="none" xmlns="http://www.w3.org/2000/svg">
<g clip-path="url(#clip0_4421_207214)">
<path d="M34.8672 12.9493C34.8672 11.7397 35.1513 10.6545 35.7194 9.69386C36.2996 8.73323 37.0792 7.98607 38.0583 7.45239C39.0496 6.90684 40.1315 6.63407 41.3039 6.63407C42.6456 6.63407 43.8363 6.96021 44.8758 7.61249C45.9274 8.25292 46.689 9.1661 47.1604 10.3521H44.6764C44.35 9.69979 43.8967 9.21355 43.3165 8.89334C42.7363 8.57313 42.0654 8.41302 41.3039 8.41302C40.4698 8.41302 39.7265 8.59684 39.0737 8.96449C38.421 9.33215 37.9073 9.85989 37.5325 10.5478C37.1699 11.2356 36.9886 12.0361 36.9886 12.9493C36.9886 13.8625 37.1699 14.663 37.5325 15.3509C37.9073 16.0388 38.421 16.5725 39.0737 16.952C39.7265 17.3197 40.4698 17.5034 41.3039 17.5034C42.0654 17.5034 42.7363 17.3433 43.3165 17.0231C43.8967 16.7029 44.35 16.2167 44.6764 15.5644H47.1604C46.689 16.7504 45.9274 17.6635 44.8758 18.304C43.8363 18.9444 42.6456 19.2646 41.3039 19.2646C40.1193 19.2646 39.0375 18.9978 38.0583 18.4641C37.0792 17.9185 36.2996 17.1654 35.7194 16.2048C35.1513 15.2442 34.8672 14.159 34.8672 12.9493ZM51.6468 10.779C51.9491 10.2809 52.348 9.89547 52.8435 9.6227C53.3512 9.33807 53.9496 9.19576 54.6386 9.19576V11.2949H54.1127C53.303 11.2949 52.6865 11.4965 52.2633 11.8998C51.8524 12.303 51.6468 13.0027 51.6468 13.9989V19.1579H49.5798V9.35586H51.6468V10.779ZM55.8496 14.2124C55.8496 13.228 56.0551 12.3564 56.4661 11.5973C56.8891 10.8383 57.4573 10.2513 58.1705 9.83618C58.8957 9.40923 59.6935 9.19576 60.5638 9.19576C61.3495 9.19576 62.0325 9.34994 62.6127 9.65828C63.205 9.95478 63.6765 10.3284 64.027 10.779V9.35586H66.1121V19.1579H64.027V17.6991C63.6765 18.1617 63.1989 18.5471 62.5946 18.8554C61.9902 19.1637 61.3012 19.318 60.5276 19.318C59.6694 19.318 58.8836 19.1045 58.1705 18.6775C57.4573 18.2387 56.8891 17.6339 56.4661 16.863C56.0551 16.0803 55.8496 15.1967 55.8496 14.2124ZM64.027 14.248C64.027 13.572 63.8819 12.9849 63.5918 12.4868C63.3138 11.9887 62.9451 11.6092 62.4858 11.3483C62.0265 11.0874 61.5308 10.9569 60.999 10.9569C60.4672 10.9569 59.9715 11.0874 59.5122 11.3483C59.0529 11.5973 58.6781 11.9709 58.388 12.469C58.1101 12.9553 57.971 13.5364 57.971 14.2124C57.971 14.8884 58.1101 15.4813 58.388 15.9913C58.6781 16.5013 59.0529 16.8927 59.5122 17.1654C59.9836 17.4264 60.4792 17.5568 60.999 17.5568C61.5308 17.5568 62.0265 17.4264 62.4858 17.1654C62.9451 16.9045 63.3138 16.525 63.5918 16.0269C63.8819 15.5169 64.027 14.924 64.027 14.248ZM68.1379 14.2124C68.1379 13.228 68.3435 12.3564 68.7544 11.5973C69.1776 10.8383 69.7457 10.2513 70.4588 9.83618C71.184 9.40923 71.988 9.19576 72.8703 9.19576C73.523 9.19576 74.1638 9.33807 74.7922 9.6227C75.433 9.89547 75.9407 10.2631 76.3153 10.7257V5.99365H78.4004V19.1579H76.3153V17.6813C75.9769 18.1558 75.5055 18.5471 74.901 18.8554C74.3088 19.1637 73.6258 19.318 72.8521 19.318C71.9818 19.318 71.184 19.1045 70.4588 18.6775C69.7457 18.2387 69.1776 17.6339 68.7544 16.863C68.3435 16.0803 68.1379 15.1967 68.1379 14.2124ZM76.3153 14.248C76.3153 13.572 76.1702 12.9849 75.8801 12.4868C75.6021 11.9887 75.2335 11.6092 74.7741 11.3483C74.3148 11.0874 73.8193 10.9569 73.2873 10.9569C72.7555 10.9569 72.2599 11.0874 71.8005 11.3483C71.3412 11.5973 70.9665 11.9709 70.6764 12.469C70.3984 12.9553 70.2593 13.5364 70.2593 14.2124C70.2593 14.8884 70.3984 15.4813 70.6764 15.9913C70.9665 16.5013 71.3412 16.8927 71.8005 17.1654C72.2719 17.4264 72.7676 17.5568 73.2873 17.5568C73.8193 17.5568 74.3148 17.4264 74.7741 17.1654C75.2335 16.9045 75.6021 16.525 75.8801 16.0269C76.1702 15.5169 76.3153 14.924 76.3153 14.248ZM83.1824 5.99365V19.1579H81.1154V5.99365H83.1824ZM98.2033 16.6318H92.927L92.0204 19.1579H89.8628L94.3775 6.77639H96.7709L101.286 19.1579H99.1099L98.2033 16.6318ZM97.6231 14.9773L95.5742 9.23134L93.5072 14.9773H97.6231ZM105.316 6.79418V19.1579H103.249V6.79418H105.316Z" fill="white"/>
<mask id="mask0_4421_207214" style="mask-type:luminance" maskUnits="userSpaceOnUse" x="0" y="0" width="27" height="26">
<path d="M26.5 0H0V26H26.5V0Z" fill="white"/>
</mask>
<g mask="url(#mask0_4421_207214)">
<path d="M3.61284 7.45081L0.953932 10.0299C0.953932 10.0299 -1.19241 12.2572 0.953932 15.1674C3.10028 18.0778 7.45704 21.7443 7.45704 21.7443L10.0198 18.9478C10.0198 18.9478 12.0701 16.5862 10.0198 14.0793C8.26239 11.9303 3.61284 7.45081 3.61284 7.45081Z" fill="white"/>
<path d="M3.96875 7.09845L6.62766 9.6775C6.62766 9.6775 8.92393 11.7594 11.9243 9.6775C14.9248 7.59561 18.7049 3.3697 18.7049 3.3697L15.8217 0.883853C15.8217 0.883853 13.387 -1.10482 10.8025 0.883853C8.58692 2.58852 3.96875 7.09845 3.96875 7.09845Z" fill="white"/>
<path d="M22.8885 18.2641L25.5475 15.6851C25.5475 15.6851 27.6938 13.4578 25.5475 10.5475C23.4011 7.6372 19.0444 3.97058 19.0444 3.97058L16.4815 6.76715C16.4815 6.76715 14.4313 9.12869 16.4815 11.6357C18.2389 13.7846 22.8885 18.2641 22.8885 18.2641Z" fill="white"/>
<path d="M7.64062 22.4955L10.2995 25.0745C10.2995 25.0745 12.5958 27.1564 15.5963 25.0745C18.5966 22.9927 22.3768 18.7668 22.3768 18.7668L19.4936 16.2809C19.4936 16.2809 17.0589 14.2922 14.4743 16.2809C12.2588 17.9856 7.64062 22.4955 7.64062 22.4955Z" fill="white"/>
</g>
</g>
<defs>
<clipPath id="clip0_4421_207214">
<rect width="106" height="26" fill="white"/>
</clipPath>
</defs>
</svg>
