<svg width="20" height="20" viewBox="0 0 20 20" fill="none" xmlns="http://www.w3.org/2000/svg">
<rect x="0.208333" y="0.208333" width="19.5833" height="19.5833" rx="9.79167" fill="#EBFFF6"/>
<rect x="0.208333" y="0.208333" width="19.5833" height="19.5833" rx="9.79167" stroke="#29C27F" stroke-width="0.416667"/>
<path d="M10.668 4H6.2493C5.9283 4 5.66797 4.26033 5.66797 4.58133V7.001H10.668V4Z" fill="#169154"/>
<path d="M5.66797 13.0179V15.4186C5.66797 15.7396 5.9283 15.9999 6.24897 15.9999H10.668V13.0179H5.66797Z" fill="#18482A"/>
<path d="M5.66797 7.00098H10.668V10.0016H5.66797V7.00098Z" fill="#0C8045"/>
<path d="M5.66797 10.0017H10.668V13.0184H5.66797V10.0017Z" fill="#17472A"/>
<path d="M15.0866 4H10.668V7.001H15.668V4.58133C15.668 4.26033 15.4076 4 15.0866 4Z" fill="#29C27F"/>
<path d="M10.668 13.0179V15.9999H15.087C15.4076 15.9999 15.668 15.7396 15.668 15.4189V13.0183L10.668 13.0179Z" fill="#27663F"/>
<path d="M10.668 7.00098H15.668V10.0016H10.668V7.00098Z" fill="#19AC65"/>
<path d="M10.668 10.0017H15.668V13.0184H10.668V10.0017Z" fill="#129652"/>
<path d="M8.43836 13.3333H2.89236C2.58303 13.3333 2.33203 13.0823 2.33203 12.773V7.22696C2.33203 6.91763 2.58303 6.66663 2.89236 6.66663H8.43836C8.7477 6.66663 8.9987 6.91763 8.9987 7.22696V12.773C8.9987 13.0823 8.7477 13.3333 8.43836 13.3333Z" fill="#0C7238"/>
<path d="M4.2714 8.33337H5.06673L5.71207 9.58471L6.39407 8.33337H7.13707L6.1134 10L7.1604 11.6667H6.37673L5.6734 10.3567L4.97307 11.6667H4.17773L5.24207 9.99404L4.2714 8.33337Z" fill="white"/>
</svg>
