<svg width="20" height="21" viewBox="0 0 20 21" fill="none" xmlns="http://www.w3.org/2000/svg">
<rect y="0.5" width="20" height="20" rx="10" fill="#AFAFAF" fill-opacity="0.05"/>
<rect x="0.208333" y="0.708333" width="19.5833" height="19.5833" rx="9.79167" stroke="#A0A0A0" stroke-opacity="0.5" stroke-width="0.416667"/>
<path d="M13.6673 14.3333C12.934 14.3333 12.334 13.7333 12.334 13C12.334 12.2666 12.934 11.6666 13.6673 11.6666C14.4007 11.6666 15.0007 12.2666 15.0007 13C15.0007 13.7333 14.4007 14.3333 13.6673 14.3333Z" fill="#37474F"/>
<path d="M13.6676 16.3333C12.6676 16.3333 11.7009 15.8666 11.0676 15.1L12.1009 14.2666C12.4676 14.7333 13.0676 15.0333 13.6676 15.0333C14.7676 15.0333 15.6676 14.1333 15.6676 13.0333C15.6676 11.9333 14.7676 11.0333 13.6676 11.0333C13.3342 11.0333 13.0009 11.1333 12.7009 11.2666L12.1342 11.6L9.76758 7.33328L10.9342 6.69995L12.7009 9.83328C13.0342 9.73328 13.3676 9.66662 13.7009 9.66662C15.5342 9.66662 17.0342 11.1666 17.0342 13C17.0342 14.8333 15.5009 16.3333 13.6676 16.3333Z" fill="#37474F"/>
<path d="M6.66732 16.3334C4.83398 16.3334 3.33398 14.8334 3.33398 13.0001C3.33398 11.4667 4.36732 10.1667 5.83398 9.76672L6.16732 11.0667C5.30065 11.3001 4.66732 12.1001 4.66732 13.0001C4.66732 14.1001 5.56732 15.0001 6.66732 15.0001C7.76732 15.0001 8.66732 14.1001 8.66732 13.0001V12.3334H13.6673V13.6667H9.93398C9.63398 15.2001 8.26732 16.3334 6.66732 16.3334Z" fill="#37474F"/>
<path d="M6.66732 14.3333C5.93398 14.3333 5.33398 13.7333 5.33398 13C5.33398 12.2666 5.93398 11.6666 6.66732 11.6666C7.40065 11.6666 8.00065 12.2666 8.00065 13C8.00065 13.7333 7.40065 14.3333 6.66732 14.3333Z" fill="#E91E63"/>
<path d="M10.3333 8.33329C9.6 8.33329 9 7.73329 9 6.99996C9 6.26663 9.6 5.66663 10.3333 5.66663C11.0667 5.66663 11.6667 6.26663 11.6667 6.99996C11.6667 7.73329 11.0667 8.33329 10.3333 8.33329Z" fill="#37474F"/>
<path d="M7.23294 13.3333L6.09961 12.6666L8.06628 9.43329C7.39961 8.79996 6.99961 7.93329 6.99961 6.99996C6.99961 5.16663 8.49961 3.66663 10.3329 3.66663C12.1663 3.66663 13.6663 5.16663 13.6663 6.99996C13.6663 7.29996 13.6329 7.56663 13.5663 7.83329L12.2663 7.49996C12.2996 7.33329 12.3329 7.16663 12.3329 6.99996C12.3329 5.89996 11.4329 4.99996 10.3329 4.99996C9.23294 4.99996 8.33294 5.89996 8.33294 6.99996C8.33294 7.69996 8.69961 8.33329 9.29961 8.69996L9.86628 9.03329L7.23294 13.3333Z" fill="#E91E63"/>
</svg>
