<svg width="20" height="20" viewBox="0 0 20 20" fill="none" xmlns="http://www.w3.org/2000/svg">
<rect x="0.208333" y="0.208333" width="19.5833" height="19.5833" rx="9.79167" fill="#EEF7FF"/>
<rect x="0.208333" y="0.208333" width="19.5833" height="19.5833" rx="9.79167" stroke="#6FBAFC" stroke-width="0.416667"/>
<g clip-path="url(#clip0_10683_74602)">
<mask id="mask0_10683_74602" style="mask-type:luminance" maskUnits="userSpaceOnUse" x="4" y="3" width="14" height="14">
<path d="M18 3H4V17H18V3Z" fill="white"/>
</mask>
<g mask="url(#mask0_10683_74602)">
<mask id="mask1_10683_74602" style="mask-type:luminance" maskUnits="userSpaceOnUse" x="4" y="3" width="14" height="14">
<path d="M18 3H4V17H18V3Z" fill="white"/>
</mask>
<g mask="url(#mask1_10683_74602)">
<mask id="mask2_10683_74602" style="mask-type:alpha" maskUnits="userSpaceOnUse" x="3" y="4" width="15" height="12">
<path d="M12.9259 4.45837C13.0919 4.45837 13.25 4.52906 13.3606 4.65274L17.797 9.61107C17.9952 9.83254 17.9952 10.1675 17.797 10.389L13.3606 15.3473C13.25 15.471 13.0919 15.5417 12.9259 15.5417H4.57471C4.07048 15.5417 3.80377 14.9452 4.13999 14.5694L8.22837 10L4.13999 5.43067C3.80377 5.05491 4.07048 4.45837 4.57471 4.45837H12.9259Z" fill="white"/>
</mask>
<g mask="url(#mask2_10683_74602)">
<path d="M13.1862 4.45837L8.22786 10L3.26953 4.45837H13.1862Z" fill="url(#paint0_linear_10683_74602)"/>
<g filter="url(#filter0_f_10683_74602)">
<path d="M13.1862 4.51672L3.26953 15.6001H13.1862L18.1445 10.0584L13.1862 4.51672Z" fill="black" fill-opacity="0.24"/>
</g>
<g filter="url(#filter1_f_10683_74602)">
<path d="M13.1862 4.75L3.26953 15.8333H13.1862L18.1445 10.2917L13.1862 4.75Z" fill="black" fill-opacity="0.32"/>
</g>
<path d="M3.26953 15.5417L13.1862 4.45837L18.1445 10L13.1862 15.5417H3.26953Z" fill="url(#paint1_linear_10683_74602)"/>
<path d="M3.26953 15.5417L13.1862 4.45837L15.6654 7.22921L8.22786 15.5417H3.26953Z" fill="url(#paint2_linear_10683_74602)"/>
</g>
</g>
</g>
</g>
<defs>
<filter id="filter0_f_10683_74602" x="2.46953" y="3.71672" width="16.475" height="12.6834" filterUnits="userSpaceOnUse" color-interpolation-filters="sRGB">
<feFlood flood-opacity="0" result="BackgroundImageFix"/>
<feBlend mode="normal" in="SourceGraphic" in2="BackgroundImageFix" result="shape"/>
<feGaussianBlur stdDeviation="0.4" result="effect1_foregroundBlur_10683_74602"/>
</filter>
<filter id="filter1_f_10683_74602" x="-4.73047" y="-3.25" width="30.875" height="27.0834" filterUnits="userSpaceOnUse" color-interpolation-filters="sRGB">
<feFlood flood-opacity="0" result="BackgroundImageFix"/>
<feBlend mode="normal" in="SourceGraphic" in2="BackgroundImageFix" result="shape"/>
<feGaussianBlur stdDeviation="4" result="effect1_foregroundBlur_10683_74602"/>
</filter>
<linearGradient id="paint0_linear_10683_74602" x1="10.2695" y1="11.0209" x2="8.22786" y2="4.45837" gradientUnits="userSpaceOnUse">
<stop stop-color="#0D36A5"/>
<stop offset="1" stop-color="#1152D4"/>
</linearGradient>
<linearGradient id="paint1_linear_10683_74602" x1="10.707" y1="4.45837" x2="10.707" y2="15.5417" gradientUnits="userSpaceOnUse">
<stop stop-color="#84CAFF"/>
<stop offset="1" stop-color="#61B1FB"/>
</linearGradient>
<linearGradient id="paint2_linear_10683_74602" x1="9.46745" y1="4.45837" x2="9.46745" y2="15.5417" gradientUnits="userSpaceOnUse">
<stop stop-color="#3B90F5"/>
<stop offset="1" stop-color="#2A78EE"/>
</linearGradient>
<clipPath id="clip0_10683_74602">
<rect width="14" height="14" fill="white" transform="translate(4 3)"/>
</clipPath>
</defs>
</svg>
