<svg width="17" height="18" viewBox="0 0 17 18" fill="none" xmlns="http://www.w3.org/2000/svg">
<path d="M7.5 4.5L8.75246 7.50591C8.95614 7.99473 9.05797 8.23914 9.21634 8.44472C9.3567 8.62693 9.52916 8.78613 9.72655 8.91569C9.94927 9.06187 10.214 9.15587 10.7436 9.34388L14 10.5L10.7436 11.6561C10.214 11.8441 9.94927 11.9381 9.72655 12.0843C9.52916 12.2139 9.3567 12.3731 9.21634 12.5553C9.05798 12.7609 8.95614 13.0053 8.75246 13.4941L7.5 16.5L6.24754 13.4941C6.04386 13.0053 5.94203 12.7609 5.78366 12.5553C5.6433 12.3731 5.47084 12.2139 5.27345 12.0843C5.05073 11.9381 4.78596 11.8441 4.2564 11.6561L1 10.5L4.2564 9.34388C4.78595 9.15587 5.05073 9.06187 5.27345 8.91569C5.47084 8.78613 5.6433 8.62693 5.78366 8.44472C5.94203 8.23914 6.04386 7.99473 6.24754 7.50591L7.5 4.5Z" stroke="#9FA2A6" stroke-width="2" stroke-linecap="round" stroke-linejoin="round"/>
<path d="M15.325 4.86351C15.2975 4.79513 15.229 4.75 15.1525 4.75C15.0761 4.75 15.0075 4.79513 14.98 4.86351L14.6596 5.66196C14.6041 5.80027 14.5866 5.84012 14.5628 5.87228C14.5388 5.90455 14.5094 5.93274 14.4758 5.95568C14.4422 5.97855 14.4006 5.99526 14.2563 6.04846L13.4231 6.35555C13.3518 6.38186 13.3047 6.44756 13.3047 6.52083C13.3047 6.59411 13.3518 6.65981 13.4231 6.68611L14.2563 6.99321C14.4006 7.0464 14.4422 7.06312 14.4758 7.08599C14.5094 7.10893 14.5388 7.13712 14.5628 7.16939C14.5866 7.20154 14.6041 7.2414 14.6596 7.37971L14.98 8.17815C15.0075 8.24654 15.0761 8.29167 15.1525 8.29167C15.229 8.29167 15.2975 8.24654 15.325 8.17815L15.6454 7.37971C15.7009 7.2414 15.7184 7.20154 15.7422 7.16939C15.7662 7.13712 15.7956 7.10893 15.8293 7.08599C15.8628 7.06312 15.9044 7.0464 16.0487 6.99321L16.8819 6.68611C16.9533 6.65981 17.0003 6.59411 17.0003 6.52083C17.0003 6.44756 16.9533 6.38186 16.8819 6.35555L16.0487 6.04846C15.9044 5.99526 15.8628 5.97855 15.8293 5.95568C15.7956 5.93274 15.7662 5.90455 15.7422 5.87228C15.7184 5.84012 15.7009 5.80027 15.6454 5.66196L15.325 4.86351Z" fill="#9FA2A6"/>
<path d="M12.0337 0.636217C12.0008 0.554151 11.9185 0.5 11.8268 0.5C11.735 0.5 11.6527 0.554151 11.6198 0.636217L11.2353 1.59435C11.1687 1.76032 11.1477 1.80815 11.1191 1.84674C11.0904 1.88546 11.0551 1.91929 11.0147 1.94682C10.9744 1.97426 10.9245 1.99432 10.7513 2.05815L9.75151 2.42666C9.66588 2.45823 9.60938 2.53707 9.60938 2.625C9.60938 2.71293 9.66588 2.79177 9.75151 2.82334L10.7513 3.19185C10.9245 3.25568 10.9744 3.27574 11.0147 3.30318C11.0551 3.33071 11.0904 3.36454 11.1191 3.40326C11.1477 3.44185 11.1687 3.48968 11.2353 3.65565L11.6198 4.61378C11.6527 4.69585 11.735 4.75 11.8268 4.75C11.9185 4.75 12.0008 4.69585 12.0337 4.61378L12.4183 3.65565C12.4849 3.48968 12.5058 3.44185 12.5344 3.40326C12.5632 3.36454 12.5985 3.33071 12.6389 3.30318C12.6791 3.27574 12.729 3.25568 12.9022 3.19185L13.902 2.82334C13.9877 2.79177 14.0442 2.71293 14.0442 2.625C14.0442 2.53707 13.9877 2.45823 13.902 2.42666L12.9022 2.05815C12.729 1.99432 12.6791 1.97426 12.6389 1.94682C12.5985 1.91929 12.5632 1.88546 12.5344 1.84674C12.5058 1.80815 12.4849 1.76032 12.4183 1.59435L12.0337 0.636217Z" fill="#9FA2A6"/>
</svg>
