<svg width="17" height="17" viewBox="0 0 17 17" fill="none" xmlns="http://www.w3.org/2000/svg">
<path d="M7.5 4L8.75246 7.00591C8.95614 7.49473 9.05797 7.73914 9.21634 7.94472C9.3567 8.12693 9.52916 8.28613 9.72655 8.41569C9.94927 8.56187 10.214 8.65587 10.7436 8.84388L14 10L10.7436 11.1561C10.214 11.3441 9.94927 11.4381 9.72655 11.5843C9.52916 11.7139 9.3567 11.8731 9.21634 12.0553C9.05798 12.2609 8.95614 12.5053 8.75246 12.9941L7.5 16L6.24754 12.9941C6.04386 12.5053 5.94203 12.2609 5.78366 12.0553C5.6433 11.8731 5.47084 11.7139 5.27345 11.5843C5.05073 11.4381 4.78596 11.3441 4.2564 11.1561L1 10L4.2564 8.84388C4.78595 8.65587 5.05073 8.56187 5.27345 8.41569C5.47084 8.28613 5.6433 8.12693 5.78366 7.94472C5.94203 7.73914 6.04386 7.49473 6.24754 7.00591L7.5 4Z" stroke="#9FA2A6" stroke-width="1.39167" stroke-linecap="round" stroke-linejoin="round"/>
<path d="M15.325 4.36351C15.2975 4.29513 15.229 4.25 15.1525 4.25C15.0761 4.25 15.0075 4.29513 14.98 4.36351L14.6596 5.16196C14.6041 5.30027 14.5866 5.34012 14.5628 5.37228C14.5388 5.40455 14.5094 5.43274 14.4758 5.45568C14.4422 5.47855 14.4006 5.49526 14.2563 5.54846L13.4231 5.85555C13.3518 5.88186 13.3047 5.94756 13.3047 6.02083C13.3047 6.09411 13.3518 6.15981 13.4231 6.18611L14.2563 6.49321C14.4006 6.5464 14.4422 6.56312 14.4758 6.58599C14.5094 6.60893 14.5388 6.63712 14.5628 6.66939C14.5866 6.70154 14.6041 6.7414 14.6596 6.87971L14.98 7.67815C15.0075 7.74654 15.0761 7.79167 15.1525 7.79167C15.229 7.79167 15.2975 7.74654 15.325 7.67815L15.6454 6.87971C15.7009 6.7414 15.7184 6.70154 15.7422 6.66939C15.7662 6.63712 15.7956 6.60893 15.8293 6.58599C15.8628 6.56312 15.9044 6.5464 16.0487 6.49321L16.8819 6.18611C16.9533 6.15981 17.0003 6.09411 17.0003 6.02083C17.0003 5.94756 16.9533 5.88186 16.8819 5.85555L16.0487 5.54846C15.9044 5.49526 15.8628 5.47855 15.8293 5.45568C15.7956 5.43274 15.7662 5.40455 15.7422 5.37228C15.7184 5.34012 15.7009 5.30027 15.6454 5.16196L15.325 4.36351Z" fill="#9FA2A6"/>
<path d="M12.0337 0.136217C12.0008 0.0541511 11.9185 0 11.8268 0C11.735 0 11.6527 0.0541511 11.6198 0.136217L11.2353 1.09435C11.1687 1.26032 11.1477 1.30815 11.1191 1.34674C11.0904 1.38546 11.0551 1.41929 11.0147 1.44682C10.9744 1.47426 10.9245 1.49432 10.7513 1.55815L9.75151 1.92666C9.66588 1.95823 9.60938 2.03707 9.60938 2.125C9.60938 2.21293 9.66588 2.29177 9.75151 2.32334L10.7513 2.69185C10.9245 2.75568 10.9744 2.77574 11.0147 2.80318C11.0551 2.83071 11.0904 2.86454 11.1191 2.90326C11.1477 2.94185 11.1687 2.98968 11.2353 3.15565L11.6198 4.11378C11.6527 4.19585 11.735 4.25 11.8268 4.25C11.9185 4.25 12.0008 4.19585 12.0337 4.11378L12.4183 3.15565C12.4849 2.98968 12.5058 2.94185 12.5344 2.90326C12.5632 2.86454 12.5985 2.83071 12.6389 2.80318C12.6791 2.77574 12.729 2.75568 12.9022 2.69185L13.902 2.32334C13.9877 2.29177 14.0442 2.21293 14.0442 2.125C14.0442 2.03707 13.9877 1.95823 13.902 1.92666L12.9022 1.55815C12.729 1.49432 12.6791 1.47426 12.6389 1.44682C12.5985 1.41929 12.5632 1.38546 12.5344 1.34674C12.5058 1.30815 12.4849 1.26032 12.4183 1.09435L12.0337 0.136217Z" fill="#9FA2A6"/>
</svg>
