<svg width="20" height="21" viewBox="0 0 20 21" fill="none" xmlns="http://www.w3.org/2000/svg">
<rect y="0.5" width="20" height="20" rx="10" fill="#1EA2E5" fill-opacity="0.05"/>
<rect x="0.208333" y="0.708333" width="19.5833" height="19.5833" rx="9.79167" stroke="#20A4E5" stroke-opacity="0.5" stroke-width="0.416667"/>
<path d="M5.625 11.5833L16.125 7.41016V15.0833C16.125 15.4056 15.864 15.6667 15.5417 15.6667H5.625V11.5833Z" fill="url(#paint0_linear_10695_26107)"/>
<path d="M3.875 7.41016V15.0833C3.875 15.4056 4.13604 15.6667 4.45833 15.6667H15.5417C15.6849 15.6667 15.8144 15.613 15.9159 15.5272L3.875 7.41016Z" fill="url(#paint1_linear_10695_26107)"/>
<path opacity="0.05" d="M3.875 7.20831H16.125V7.70181L11.0733 11.6247C10.4419 12.115 9.55812 12.115 8.92667 11.6247L3.875 7.70181V7.20831Z" fill="black"/>
<path opacity="0.07" d="M3.875 7.0625H16.125V7.556L10.8651 11.3803C10.3512 11.7607 9.64883 11.7607 9.13492 11.3803L3.875 7.556V7.0625Z" fill="black"/>
<path d="M4.45833 6.33331H15.5417C15.864 6.33331 16.125 6.59435 16.125 6.91665V7.41015L10.6568 11.1359C10.2605 11.406 9.73925 11.406 9.34317 11.1359L3.875 7.41015V6.91665C3.875 6.59435 4.13604 6.33331 4.45833 6.33331Z" fill="#50E6FF"/>
<defs>
<linearGradient id="paint0_linear_10695_26107" x1="9.2755" y1="9.14441" x2="16.2977" y2="19.6546" gradientUnits="userSpaceOnUse">
<stop stop-color="#28AFEA"/>
<stop offset="1" stop-color="#0B88DA"/>
</linearGradient>
<linearGradient id="paint1_linear_10695_26107" x1="3.41067" y1="11.1196" x2="13.5965" y2="17.4645" gradientUnits="userSpaceOnUse">
<stop stop-color="#28AFEA"/>
<stop offset="1" stop-color="#0B88DA"/>
</linearGradient>
</defs>
</svg>
