<svg width="20" height="20" viewBox="0 0 20 20" fill="none" xmlns="http://www.w3.org/2000/svg">
<rect x="0.208333" y="0.208333" width="19.5833" height="19.5833" rx="9.79167" fill="#079455"/>
<rect x="0.208333" y="0.208333" width="19.5833" height="19.5833" rx="9.79167" stroke="#E9EAEB" stroke-width="0.416667"/>
<path d="M14.8992 7.87817H12.9023V9.10161H14.8992V7.87817ZM14.8992 9.45005H12.9023V10.6985H14.8992V9.45005ZM14.8992 6.30474H12.9023V7.52817H14.8992V6.30474ZM14.8992 12.5188H12.9023V13.7672H14.8992V12.5188ZM15.8227 5.05786H11.032C10.982 5.05786 10.932 5.05786 10.882 5.08286V3.76099L3.76953 5.18286V14.8407L10.857 16.2375V14.9657C10.907 14.9907 10.957 14.9907 11.007 14.9907H15.7977C16.0477 14.9907 16.2227 14.7907 16.2227 14.5422V5.5063C16.2461 5.25786 16.0477 5.05786 15.8227 5.05786ZM8.56172 12.0704L7.71328 12.0204L7.06484 10.3985L6.36641 11.9204L5.56797 11.8704L6.59141 10.0235L5.66797 8.00161L6.46641 7.95161L7.01484 9.47349H7.11484L7.71328 7.85161L8.56172 7.80161L7.48828 9.94692L8.56172 12.0704ZM15.6977 14.4407H10.857V13.7672H12.4789V12.5188H10.857V12.2438H12.4789V11.0204H10.857V10.6954H12.4789V9.44692H10.857V9.09692H12.4789V7.87349H10.857V7.54849H12.4789V6.32505H10.857V5.62661H15.6977V14.4407ZM14.8992 11.0219H12.9023V12.2454H14.8992V11.0219Z" fill="url(#paint0_linear_10683_74431)"/>
<defs>
<linearGradient id="paint0_linear_10683_74431" x1="9.99704" y1="3.76099" x2="9.99704" y2="16.2375" gradientUnits="userSpaceOnUse">
<stop stop-color="white"/>
<stop offset="1" stop-color="#E6FFF4"/>
</linearGradient>
</defs>
</svg>
