<svg width="20" height="21" viewBox="0 0 20 21" fill="none" xmlns="http://www.w3.org/2000/svg">
<rect y="0.5" width="20" height="20" rx="10" fill="#4285F4" fill-opacity="0.05"/>
<rect x="0.208333" y="0.708333" width="19.5833" height="19.5833" rx="9.79167" stroke="#4285F4" stroke-opacity="0.5" stroke-width="0.416667"/>
<path d="M10.0003 8.1049L7.79807 4.21836C7.87119 4.14391 7.95532 4.09508 8.03945 4.06226C7.39001 4.276 7.09202 5.00527 7.09202 5.00527L3.0688 12.1035C3.01219 12.3261 2.99646 12.527 3.00354 12.7039H7.39473L10.0003 8.1049Z" fill="#34A853"/>
<path d="M10 8.1049L12.6056 12.7039H16.9968C17.0039 12.527 16.9882 12.3261 16.9315 12.1035L12.9083 5.00527C12.9083 5.00527 12.6096 4.276 11.9609 4.06226C12.0442 4.09508 12.1292 4.14391 12.2023 4.21836L10 8.1049Z" fill="#FBBC05"/>
<path d="M10.0011 8.10541L12.2034 4.21887C12.1303 4.14442 12.0453 4.09559 11.962 4.06276C11.8661 4.03154 11.7631 4.01073 11.6514 4.00513H11.5351H8.46714H8.35077C8.23991 4.00993 8.13613 4.03074 8.04021 4.06276C7.95686 4.09559 7.87195 4.14442 7.79883 4.21887L10.0011 8.10541Z" fill="#188038"/>
<path d="M7.39656 12.7041L5.21944 16.5466C5.21944 16.5466 5.14711 16.5114 5.04883 16.4385C5.35782 16.6763 5.65817 16.7267 5.65817 16.7267H14.2086C14.6803 16.7267 14.7786 16.5466 14.7786 16.5466C14.7802 16.5458 14.781 16.545 14.7826 16.5442L12.607 12.7041H7.39656Z" fill="#4285F4"/>
<path d="M7.39509 12.7041H3.00391C3.02592 13.226 3.25236 13.531 3.25236 13.531L3.41747 13.8176C3.42927 13.8344 3.43634 13.844 3.43634 13.844L3.79566 14.4749L4.60234 15.879C4.62593 15.9358 4.65345 15.9879 4.68254 16.0375C4.69355 16.0543 4.70377 16.0727 4.71556 16.0887C4.71871 16.0935 4.72185 16.0983 4.725 16.1031C4.82485 16.244 4.9365 16.3529 5.04815 16.4385C5.14643 16.5122 5.21876 16.5466 5.21876 16.5466L7.39509 12.7041Z" fill="#1967D2"/>
<path d="M12.6074 12.7041H16.9986C16.9766 13.226 16.7502 13.531 16.7502 13.531L16.585 13.8176C16.5732 13.8344 16.5662 13.844 16.5662 13.844L16.2069 14.4749L15.4002 15.879C15.3766 15.9358 15.3491 15.9879 15.32 16.0375C15.309 16.0543 15.2987 16.0727 15.2869 16.0887C15.2838 16.0935 15.2807 16.0983 15.2775 16.1031C15.1777 16.244 15.066 16.3529 14.9544 16.4385C14.8561 16.5122 14.7838 16.5466 14.7838 16.5466L12.6074 12.7041Z" fill="#EA4335"/>
</svg>
