<svg width="20" height="21" viewBox="0 0 20 21" fill="none" xmlns="http://www.w3.org/2000/svg">
<rect y="0.5" width="20" height="20" rx="10" fill="#27A668" fill-opacity="0.05"/>
<rect x="0.208333" y="0.708333" width="19.5833" height="19.5833" rx="9.79167" stroke="#26A668" stroke-opacity="0.5" stroke-width="0.416667"/>
<g clip-path="url(#clip0_10695_26128)">
<mask id="mask0_10695_26128" style="mask-type:luminance" maskUnits="userSpaceOnUse" x="5" y="4" width="10" height="13">
<path d="M11.2073 4.18591H6.07553C5.57745 4.18591 5.16992 4.57337 5.16992 5.04692V15.953C5.16992 16.4266 5.57745 16.814 6.07553 16.814H13.9242C14.4223 16.814 14.8298 16.4266 14.8298 15.953V7.62994L11.2073 4.18591Z" fill="white"/>
</mask>
<g mask="url(#mask0_10695_26128)">
<path d="M11.2073 4.18591H6.07553C5.57745 4.18591 5.16992 4.57337 5.16992 5.04692V15.953C5.16992 16.4266 5.57745 16.814 6.07553 16.814H13.9242C14.4223 16.814 14.8298 16.4266 14.8298 15.953V7.62994L12.7167 6.19493L11.2073 4.18591Z" fill="#0F9D58"/>
</g>
<mask id="mask1_10695_26128" style="mask-type:luminance" maskUnits="userSpaceOnUse" x="5" y="4" width="10" height="13">
<path d="M11.2073 4.18591H6.07553C5.57745 4.18591 5.16992 4.57337 5.16992 5.04692V15.953C5.16992 16.4266 5.57745 16.814 6.07553 16.814H13.9242C14.4223 16.814 14.8298 16.4266 14.8298 15.953V7.62994L11.2073 4.18591Z" fill="white"/>
</mask>
<g mask="url(#mask1_10695_26128)">
<path d="M7.58398 10.3564V14.518H12.4139V10.3564H7.58398ZM9.69708 13.944H8.18773V13.2265H9.69708V13.944ZM9.69708 12.796H8.18773V12.0785H9.69708V12.796ZM9.69708 11.648H8.18773V10.9305H9.69708V11.648ZM11.8102 13.944H10.3008V13.2265H11.8102V13.944ZM11.8102 12.796H10.3008V12.0785H11.8102V12.796ZM11.8102 11.648H10.3008V10.9305H11.8102V11.648Z" fill="#F1F1F1"/>
</g>
<mask id="mask2_10695_26128" style="mask-type:luminance" maskUnits="userSpaceOnUse" x="5" y="4" width="10" height="13">
<path d="M11.2073 4.18591H6.07553C5.57745 4.18591 5.16992 4.57337 5.16992 5.04692V15.953C5.16992 16.4266 5.57745 16.814 6.07553 16.814H13.9242C14.4223 16.814 14.8298 16.4266 14.8298 15.953V7.62994L11.2073 4.18591Z" fill="white"/>
</mask>
<g mask="url(#mask2_10695_26128)">
<path d="M11.4727 7.37805L14.8302 10.5695V7.6299L11.4727 7.37805Z" fill="url(#paint0_linear_10695_26128)"/>
</g>
<mask id="mask3_10695_26128" style="mask-type:luminance" maskUnits="userSpaceOnUse" x="5" y="4" width="10" height="13">
<path d="M11.2073 4.18591H6.07553C5.57745 4.18591 5.16992 4.57337 5.16992 5.04692V15.953C5.16992 16.4266 5.57745 16.814 6.07553 16.814H13.9242C14.4223 16.814 14.8298 16.4266 14.8298 15.953V7.62994L11.2073 4.18591Z" fill="white"/>
</mask>
<g mask="url(#mask3_10695_26128)">
<path d="M11.207 4.18591V6.76894C11.207 7.24464 11.6123 7.62994 12.1126 7.62994H14.8295L11.207 4.18591Z" fill="#87CEAC"/>
</g>
<mask id="mask4_10695_26128" style="mask-type:luminance" maskUnits="userSpaceOnUse" x="5" y="4" width="10" height="13">
<path d="M11.2073 4.18591H6.07553C5.57745 4.18591 5.16992 4.57337 5.16992 5.04692V15.953C5.16992 16.4266 5.57745 16.814 6.07553 16.814H13.9242C14.4223 16.814 14.8298 16.4266 14.8298 15.953V7.62994L11.2073 4.18591Z" fill="white"/>
</mask>
<g mask="url(#mask4_10695_26128)">
<path d="M6.07553 4.18591C5.57745 4.18591 5.16992 4.57337 5.16992 5.04692V5.11867C5.16992 4.64512 5.57745 4.25766 6.07553 4.25766H11.2073V4.18591H6.07553Z" fill="white" fill-opacity="0.2"/>
</g>
<mask id="mask5_10695_26128" style="mask-type:luminance" maskUnits="userSpaceOnUse" x="5" y="4" width="10" height="13">
<path d="M11.2073 4.18591H6.07553C5.57745 4.18591 5.16992 4.57337 5.16992 5.04692V15.953C5.16992 16.4266 5.57745 16.814 6.07553 16.814H13.9242C14.4223 16.814 14.8298 16.4266 14.8298 15.953V7.62994L11.2073 4.18591Z" fill="white"/>
</mask>
<g mask="url(#mask5_10695_26128)">
<path d="M13.9242 16.7422H6.07553C5.57745 16.7422 5.16992 16.3548 5.16992 15.8812V15.953C5.16992 16.4265 5.57745 16.814 6.07553 16.814H13.9242C14.4223 16.814 14.8298 16.4265 14.8298 15.953V15.8812C14.8298 16.3548 14.4223 16.7422 13.9242 16.7422Z" fill="#263238" fill-opacity="0.2"/>
</g>
<mask id="mask6_10695_26128" style="mask-type:luminance" maskUnits="userSpaceOnUse" x="5" y="4" width="10" height="13">
<path d="M11.2073 4.18591H6.07553C5.57745 4.18591 5.16992 4.57337 5.16992 5.04692V15.953C5.16992 16.4266 5.57745 16.814 6.07553 16.814H13.9242C14.4223 16.814 14.8298 16.4266 14.8298 15.953V7.62994L11.2073 4.18591Z" fill="white"/>
</mask>
<g mask="url(#mask6_10695_26128)">
<path d="M12.1126 7.62993C11.6123 7.62993 11.207 7.24463 11.207 6.76892V6.84067C11.207 7.31638 11.6123 7.70168 12.1126 7.70168H14.8295V7.62993H12.1126Z" fill="#263238" fill-opacity="0.1"/>
</g>
<path d="M11.2073 4.18591H6.07553C5.57745 4.18591 5.16992 4.57337 5.16992 5.04692V15.953C5.16992 16.4266 5.57745 16.814 6.07553 16.814H13.9242C14.4223 16.814 14.8298 16.4266 14.8298 15.953V7.62994L11.2073 4.18591Z" fill="url(#paint1_radial_10695_26128)"/>
</g>
<defs>
<linearGradient id="paint0_linear_10695_26128" x1="179.369" y1="34.7803" x2="179.369" y2="326.569" gradientUnits="userSpaceOnUse">
<stop stop-color="#263238" stop-opacity="0.2"/>
<stop offset="1" stop-color="#263238" stop-opacity="0.02"/>
</linearGradient>
<radialGradient id="paint1_radial_10695_26128" cx="0" cy="0" r="1" gradientUnits="userSpaceOnUse" gradientTransform="translate(35.7729 29.1446) scale(1557.64 1480.92)">
<stop stop-color="white" stop-opacity="0.1"/>
<stop offset="1" stop-color="white" stop-opacity="0"/>
</radialGradient>
<clipPath id="clip0_10695_26128">
<rect width="10" height="13" fill="white" transform="translate(5 4)"/>
</clipPath>
</defs>
</svg>
