<svg width="20" height="20" viewBox="0 0 20 20" fill="none" xmlns="http://www.w3.org/2000/svg">
<rect x="0.208333" y="0.208333" width="19.5833" height="19.5833" rx="9.79167" fill="#7F56D9"/>
<rect x="0.208333" y="0.208333" width="19.5833" height="19.5833" rx="9.79167" stroke="#E9EAEB" stroke-width="0.416667"/>
<g clip-path="url(#clip0_10683_74507)">
<mask id="mask0_10683_74507" style="mask-type:luminance" maskUnits="userSpaceOnUse" x="13" y="5" width="4" height="10">
<path d="M14.1857 5.25708H16.6138C16.7983 5.25708 16.9519 5.40837 16.9519 5.58991V14.425C16.9519 14.6065 16.7983 14.7578 16.6138 14.7578H14.1857C14.0013 14.7578 13.8477 14.6065 13.8477 14.425V5.58991C13.8477 5.40837 14.0013 5.25708 14.1857 5.25708Z" fill="white"/>
</mask>
<g mask="url(#mask0_10683_74507)">
<path d="M10.7305 6.40681L16.5856 4.27368L20.0894 13.6232L14.2343 15.7412L10.7305 6.40681Z" fill="url(#paint0_linear_10683_74507)"/>
</g>
<mask id="mask1_10683_74507" style="mask-type:luminance" maskUnits="userSpaceOnUse" x="2" y="5" width="8" height="10">
<path d="M7.05319 5.3782L3.02685 13.2753C2.95001 13.4417 3.01148 13.6384 3.18053 13.7141L5.34737 14.7882C5.51642 14.8638 5.7162 14.8033 5.79304 14.6369L9.81938 6.73977C9.89622 6.57336 9.83475 6.37669 9.66571 6.30104L7.51422 5.22691C7.46812 5.19666 7.42202 5.19666 7.36055 5.19666C7.23761 5.19666 7.11466 5.2723 7.05319 5.3782Z" fill="white"/>
</mask>
<g mask="url(#mask1_10683_74507)">
<path d="M-0.625 6.72464L8.82615 2.70044L13.4979 13.351L4.04679 17.3752L-0.625 6.72464Z" fill="url(#paint1_linear_10683_74507)"/>
</g>
<mask id="mask2_10683_74507" style="mask-type:luminance" maskUnits="userSpaceOnUse" x="8" y="5" width="6" height="10">
<path d="M10.453 5.40849L8.73177 14.0167C8.70104 14.1982 8.80861 14.3646 8.99302 14.41L11.375 14.879C11.5594 14.9092 11.7285 14.8033 11.7746 14.6218L13.4958 6.01363C13.5265 5.83209 13.4189 5.66568 13.2345 5.62029L10.8525 5.1513C10.8372 5.1513 10.8064 5.1513 10.791 5.1513C10.622 5.13618 10.4837 5.2572 10.453 5.40849Z" fill="white"/>
</mask>
<g mask="url(#mask2_10683_74507)">
<path d="M5.47461 6.30104L12.9587 3.59302L16.7392 13.7443L9.27044 16.4523L5.47461 6.30104Z" fill="url(#paint2_linear_10683_74507)"/>
</g>
</g>
<defs>
<linearGradient id="paint0_linear_10683_74507" x1="15.4099" y1="4.27368" x2="15.4099" y2="15.7412" gradientUnits="userSpaceOnUse">
<stop stop-color="white"/>
<stop offset="1" stop-color="#CAB6F4"/>
</linearGradient>
<linearGradient id="paint1_linear_10683_74507" x1="6.43647" y1="2.70044" x2="6.43647" y2="17.3752" gradientUnits="userSpaceOnUse">
<stop stop-color="#F8F8F8"/>
<stop offset="1" stop-color="#CEB8FF"/>
</linearGradient>
<linearGradient id="paint2_linear_10683_74507" x1="11.1069" y1="3.59302" x2="11.1069" y2="16.4523" gradientUnits="userSpaceOnUse">
<stop stop-color="white"/>
<stop offset="1" stop-color="#CAB6F4"/>
</linearGradient>
<clipPath id="clip0_10683_74507">
<rect width="14" height="10" fill="white" transform="translate(3 5)"/>
</clipPath>
</defs>
</svg>
