<svg width="20" height="21" viewBox="0 0 20 21" fill="none" xmlns="http://www.w3.org/2000/svg">
<rect y="0.5" width="20" height="20" rx="10" fill="#EA4B71" fill-opacity="0.05"/>
<rect x="0.208333" y="0.708333" width="19.5833" height="19.5833" rx="9.79167" stroke="#8F8F8F" stroke-opacity="0.5" stroke-width="0.416667"/>
<g clip-path="url(#clip0_10695_26149)">
<path fill-rule="evenodd" clip-rule="evenodd" d="M15.4204 10.2C14.6849 10.2 14.0664 9.69 13.8914 9H12.0816C11.6954 9 11.3664 9.28267 11.3026 9.66867L11.2375 10.0633C11.1757 10.438 10.9888 10.764 10.7243 11C10.9888 11.236 11.1757 11.5627 11.2375 11.9367L11.3026 12.3313C11.3658 12.7173 11.6954 13 12.0816 13H12.3125C12.4875 12.31 13.1059 11.8 13.8414 11.8C14.7138 11.8 15.4204 12.5167 15.4204 13.4C15.4204 14.2833 14.7138 15 13.8414 15C13.1059 15 12.4875 14.49 12.3125 13.8H12.0816C11.3099 13.8 10.6513 13.2347 10.5243 12.4633L10.4592 12.0687C10.3961 11.6827 10.0664 11.4 9.68026 11.4H9.0546C8.8796 12.09 8.26118 12.6 7.52566 12.6C6.79013 12.6 6.17171 12.09 5.99671 11.4H5.10789C4.93289 12.09 4.31447 12.6 3.57895 12.6C2.70724 12.6 2 11.8833 2 11C2 10.1167 2.70724 9.4 3.57895 9.4C4.31447 9.4 4.93289 9.91 5.10789 10.6H5.99671C6.17171 9.91 6.79013 9.4 7.52566 9.4C8.26118 9.4 8.8796 9.91 9.0546 10.6H9.68026C10.0664 10.6 10.3954 10.3173 10.4592 9.93133L10.5243 9.53667C10.6513 8.76533 11.3099 8.2 12.0816 8.2H13.8914C14.0664 7.51 14.6849 7 15.4204 7C16.2928 7 16.9993 7.71667 16.9993 8.6C16.9993 9.48333 16.2928 10.2 15.4204 10.2ZM15.4204 9.4C15.8566 9.4 16.2099 9.042 16.2099 8.6C16.2099 8.158 15.8566 7.8 15.4204 7.8C14.9842 7.8 14.6309 8.158 14.6309 8.6C14.6309 9.042 14.9842 9.4 15.4204 9.4ZM3.57829 11.8C4.01447 11.8 4.36776 11.442 4.36776 11C4.36776 10.558 4.01447 10.2 3.57829 10.2C3.14211 10.2 2.78882 10.558 2.78882 11C2.78882 11.442 3.14211 11.8 3.57829 11.8ZM8.31513 11C8.31513 11.442 7.96184 11.8 7.52566 11.8C7.08947 11.8 6.73618 11.442 6.73618 11C6.73618 10.558 7.08947 10.2 7.52566 10.2C7.96184 10.2 8.31513 10.558 8.31513 11ZM14.6309 13.4C14.6309 13.842 14.2776 14.2 13.8414 14.2C13.4053 14.2 13.052 13.842 13.052 13.4C13.052 12.958 13.4053 12.6 13.8414 12.6C14.2776 12.6 14.6309 12.958 14.6309 13.4Z" fill="#EA4B71"/>
</g>
<defs>
<clipPath id="clip0_10695_26149">
<rect width="15" height="8" fill="white" transform="translate(2 7)"/>
</clipPath>
</defs>
</svg>
