<svg width="20" height="21" viewBox="0 0 20 21" fill="none" xmlns="http://www.w3.org/2000/svg">
<rect y="0.5" width="20" height="20" rx="10" fill="#28A8EA" fill-opacity="0.05"/>
<rect x="0.208333" y="0.708333" width="19.5833" height="19.5833" rx="9.79167" stroke="#28A8EA" stroke-opacity="0.5" stroke-width="0.416667"/>
<g clip-path="url(#clip0_10695_26065)">
<path d="M8.10155 7.77703L8.10171 7.7765L11.4605 9.73932L13.462 8.91761C13.8687 8.74607 14.3072 8.65811 14.7503 8.65854C14.8241 8.65854 14.8971 8.6618 14.9697 8.66653C14.7291 7.75112 14.2211 6.92361 13.5075 6.28455C12.7939 5.64549 11.9054 5.22239 10.95 5.06668C9.99459 4.91097 9.01338 5.02934 8.12562 5.40741C7.23786 5.78549 6.48176 6.40698 5.94922 7.19638C5.96633 7.19617 5.98318 7.19512 6.00033 7.19512C6.74265 7.19414 7.47047 7.3957 8.10155 7.77703Z" fill="#0364B8"/>
<path d="M8.10138 7.77645L8.10122 7.77698C7.47014 7.39565 6.74232 7.19409 6 7.19507C5.98285 7.19507 5.96597 7.19612 5.94888 7.19633C5.22234 7.20511 4.51197 7.40687 3.89413 7.77994C3.27629 8.153 2.77433 8.68327 2.44219 9.31376C2.11005 9.94425 1.96028 10.6511 2.009 11.3584C2.05771 12.0657 2.30305 12.7467 2.71866 13.3281L5.68066 12.1121L6.99737 11.5715L9.92913 10.3679L11.4602 9.73927L8.10138 7.77645Z" fill="#0078D4"/>
<path d="M14.9701 8.66657C14.8975 8.66184 14.8246 8.65857 14.7507 8.65857C14.3077 8.65815 13.8692 8.74644 13.4625 8.91798L11.4609 9.73936L12.0413 10.0785L13.9438 11.1903L14.7738 11.6753L17.612 13.3339C17.8699 12.8668 18.0035 12.3441 18.0007 11.8136C17.9978 11.2831 17.8586 10.7617 17.5957 10.2973C17.3329 9.83292 16.9548 9.44028 16.496 9.15537C16.0373 8.87046 15.5127 8.70239 14.9701 8.66657Z" fill="#1490DF"/>
<path d="M14.7732 11.6754L13.9431 11.1903L12.0407 10.0785L11.4603 9.73938L9.92922 10.368L6.99746 11.5716L5.68075 12.1122L2.71875 13.3282C3.08683 13.8445 3.57752 14.2662 4.14893 14.5574C4.72033 14.8485 5.35546 15.0004 6.00008 15.0001H14.7501C15.3368 15.0002 15.9125 14.8454 16.4163 14.5521C16.9201 14.2587 17.333 13.8378 17.6114 13.3339L14.7732 11.6754Z" fill="#28A8EA"/>
</g>
<defs>
<clipPath id="clip0_10695_26065">
<rect width="16" height="10" fill="white" transform="translate(2 5)"/>
</clipPath>
</defs>
</svg>
