<svg width="18" height="18" viewBox="0 0 18 18" fill="none" xmlns="http://www.w3.org/2000/svg">
<path d="M9.375 16.5H11.4C12.6601 16.5 13.2902 16.5 13.7715 16.2548C14.1948 16.039 14.539 15.6948 14.7548 15.2715C15 14.7902 15 14.1601 15 12.9V7.49117C15 6.94084 15 6.66568 14.9378 6.40673C14.8827 6.17715 14.7918 5.95767 14.6684 5.75636C14.5293 5.5293 14.3347 5.33473 13.9456 4.94558L11.5544 2.55442C11.1653 2.16527 10.9707 1.9707 10.7436 1.83156C10.5423 1.7082 10.3229 1.61729 10.0933 1.56217C9.83432 1.5 9.55916 1.5 9.00883 1.5H6.6C5.33988 1.5 4.70982 1.5 4.22852 1.74524C3.80516 1.96095 3.46095 2.30516 3.24524 2.72852C3 3.20982 3 3.83988 3 5.1V7.49117M10.5 1.7021V4.8C10.5 5.22004 10.5 5.43006 10.5817 5.59049C10.6537 5.73161 10.7684 5.84635 10.9095 5.91825C11.0699 6 11.28 6 11.7 6H14.7979" stroke="#9FA2A6" stroke-width="2" stroke-linecap="round" stroke-linejoin="round"/>
<path fill-rule="evenodd" clip-rule="evenodd" d="M6.02439 8.40602C6.1771 8.47231 6.26782 8.63133 6.24717 8.79652L5.92486 11.375L8.24798 11.375C8.33835 11.375 8.42989 11.375 8.50468 11.3817C8.5754 11.3881 8.71084 11.4051 8.8283 11.5C8.96276 11.6087 9.03979 11.7731 9.03719 11.946C9.03491 12.097 8.96122 12.2119 8.92086 12.2703C8.87818 12.3321 8.81957 12.4024 8.7617 12.4718L5.41315 16.4901C5.30658 16.618 5.12845 16.6603 4.97575 16.594C4.82304 16.5277 4.73232 16.3687 4.75297 16.2035L5.07528 13.625L2.75216 13.625C2.66178 13.625 2.57025 13.625 2.49546 13.6183C2.42474 13.6119 2.2893 13.5949 2.17184 13.5C2.03738 13.3913 1.96035 13.2269 1.96295 13.054C1.96523 12.903 2.03892 12.7881 2.07928 12.7297C2.12196 12.6679 2.18057 12.5976 2.23844 12.5282C2.24131 12.5248 2.24417 12.5213 2.24703 12.5179L5.58699 8.50994C5.69356 8.38205 5.87169 8.33973 6.02439 8.40602Z" fill="#9FA2A6"/>
</svg>
