<svg width="19" height="20" viewBox="0 0 19 20" fill="currentColor" xmlns="http://www.w3.org/2000/svg">
<path d="M13 16H12.88C11.8719 16 11.3679 16 10.9828 15.7752C10.6441 15.5775 10.3688 15.2619 10.1962 14.8739C10 14.4327 10 13.8551 10 12.7V8.3C10 7.14489 10 6.56734 10.1962 6.12614C10.3688 5.73806 10.6441 5.42254 10.9828 5.2248C11.3679 5 11.8719 5 12.88 5" stroke="#717680" stroke-width="2" stroke-linecap="round" stroke-linejoin="round"/>
<path d="M17.0857 14H14.9143C14.5943 14 14.4342 14 14.312 14.0623C14.2045 14.1171 14.1171 14.2045 14.0623 14.312C14 14.4342 14 14.5943 14 14.9143V17.0857C14 17.4057 14 17.5658 14.0623 17.688C14.1171 17.7955 14.2045 17.8829 14.312 17.9377C14.4342 18 14.5943 18 14.9143 18H17.0857C17.4057 18 17.5658 18 17.688 17.9377C17.7955 17.8829 17.8829 17.7955 17.9377 17.688C18 17.5658 18 17.4057 18 17.0857V14.9143C18 14.5943 18 14.4342 17.9377 14.312C17.8829 14.2045 17.7955 14.1171 17.688 14.0623C17.5658 14 17.4057 14 17.0857 14Z" stroke="#717680" stroke-width="2" stroke-linecap="round" stroke-linejoin="round"/>
<path d="M17.0857 3H14.9143C14.5943 3 14.4342 3 14.312 3.06228C14.2045 3.11707 14.1171 3.20448 14.0623 3.31201C14 3.43424 14 3.59426 14 3.91429V6.08571C14 6.40574 14 6.56576 14.0623 6.68799C14.1171 6.79552 14.2045 6.88293 14.312 6.93772C14.4342 7 14.5943 7 14.9143 7H17.0857C17.4057 7 17.5658 7 17.688 6.93772C17.7955 6.88293 17.8829 6.79552 17.9377 6.68799C18 6.56576 18 6.40574 18 6.08571V3.91429C18 3.59426 18 3.43424 17.9377 3.31201C17.8829 3.20448 17.7955 3.11707 17.688 3.06228C17.5658 3 17.4057 3 17.0857 3Z" stroke="#717680" stroke-width="2" stroke-linecap="round" stroke-linejoin="round"/>
<path d="M5.08571 8.5H2.91429C2.59426 8.5 2.43424 8.5 2.31201 8.56228C2.20448 8.61707 2.11707 8.70448 2.06228 8.81201C2 8.93424 2 9.09426 2 9.41429V11.5857C2 11.9057 2 12.0658 2.06228 12.188C2.11707 12.2955 2.20448 12.3829 2.31201 12.4377C2.43424 12.5 2.59426 12.5 2.91429 12.5H5.08571C5.40574 12.5 5.56576 12.5 5.68799 12.4377C5.79552 12.3829 5.88293 12.2955 5.93772 12.188C6 12.0658 6 11.9057 6 11.5857V9.41429C6 9.09426 6 8.93424 5.93772 8.81201C5.88293 8.70448 5.79552 8.61707 5.68799 8.56228C5.56576 8.5 5.40574 8.5 5.08571 8.5Z" stroke="#717680" stroke-width="2" stroke-linecap="round" stroke-linejoin="round"/>
<line x1="6" y1="10.5" x2="9" y2="10.5" stroke="#717680" stroke-width="2"/>
</svg>
