<svg width="20" height="20" viewBox="0 0 20 20" fill="none" xmlns="http://www.w3.org/2000/svg">
<rect x="0.208333" y="0.208333" width="19.5833" height="19.5833" rx="9.79167" fill="#FFFBF9"/>
<rect x="0.208333" y="0.208333" width="19.5833" height="19.5833" rx="9.79167" stroke="#FFCDB9" stroke-width="0.416667"/>
<g clip-path="url(#clip0_10683_74771)">
<path d="M11.7499 10.0031C11.7502 10.5079 11.6591 11.0085 11.4812 11.4809C11.0086 11.6589 10.5078 11.7501 10.0028 11.7502H9.99694C9.47697 11.7495 8.97877 11.6545 8.51906 11.4812C8.34098 11.0087 8.24983 10.508 8.25 10.0031V9.99694C8.24976 9.49223 8.34072 8.99164 8.51852 8.51928C8.99105 8.34101 9.49195 8.24977 9.99699 8.25H10.0029C10.5079 8.24976 11.0087 8.34097 11.4812 8.51923C11.6592 8.99153 11.7503 9.49215 11.75 9.99688V10.003L11.7499 10.0031ZM16.9028 8.83335H12.8167L15.7058 5.94405C15.4791 5.6255 15.2261 5.32643 14.9496 5.04996V5.04974C14.6731 4.77356 14.3741 4.52084 14.0557 4.29418L11.1664 7.18348V3.09745C10.7822 3.03281 10.3932 3.00021 10.0035 3L9.99628 3C9.59991 3.00022 9.21168 3.03391 8.83335 3.09745V7.18348L5.94405 4.29418C5.62563 4.52078 5.32677 4.77368 5.05062 5.05023L5.04909 5.05133C4.77305 5.32746 4.52046 5.62606 4.29391 5.94405L7.18343 8.83335H3.09745C3.09745 8.83335 3 9.60078 3 9.99759V10.0024C3 10.3992 3.03363 10.7881 3.09745 11.1666H7.18348L4.29396 14.056C4.7485 14.6938 5.30617 15.2515 5.94405 15.706L8.83335 12.8165V16.9028C9.2172 16.9671 9.60571 16.9996 9.99491 17H10.0048C10.394 16.9996 10.7825 16.9671 11.1664 16.9028V12.8165L14.056 15.706C14.3743 15.4793 14.6732 15.2265 14.9496 14.9503L14.9503 14.9496C15.2264 14.6731 15.4791 14.3742 15.7058 14.056L12.8163 11.1666H16.9028C16.9664 10.7888 16.9996 10.401 17 10.0051V9.99491C16.9996 9.59898 16.9664 9.21124 16.9028 8.83335Z" fill="#FF4A00"/>
</g>
<defs>
<clipPath id="clip0_10683_74771">
<rect width="14" height="14" fill="white" transform="translate(3 3)"/>
</clipPath>
</defs>
</svg>
