<svg width="20" height="20" viewBox="0 0 20 20" fill="none" xmlns="http://www.w3.org/2000/svg">
<g clip-path="url(#clip0_10683_74286)">
<path d="M10.0063 0C10.5712 0.00103777 11.1268 0.0487751 11.6668 0.139061V5.96093L15.7943 1.84412C16.2502 2.16789 16.6766 2.528 17.0709 2.92132C17.4654 3.31463 17.8275 3.74116 18.1521 4.1957L14.0245 8.31252H19.8616C19.9521 8.85112 20 9.40323 20 9.96777V9.98125C20 10.5458 19.9521 11.0989 19.8616 11.6375H14.0235L18.1521 15.7533C17.8275 16.2079 17.4654 16.6344 17.0721 17.0277H17.0709C16.6766 17.421 16.2502 17.7822 15.7955 18.1049L11.6668 13.9881V19.81C11.1278 19.9003 10.5722 19.9479 10.0073 19.9491H9.99275C9.42763 19.9479 8.87423 19.9003 8.33414 19.81V13.9881L4.2067 18.1049C3.29516 17.4584 2.49824 16.6624 1.8489 15.7533L5.97654 11.6375H0.139442C0.0478711 11.0979 0 10.5427 0 9.97814V9.94916C0.000948866 9.80266 0.0105422 9.62368 0.0243212 9.43852L0.028576 9.38281C0.0693747 8.86162 0.139442 8.31252 0.139442 8.31252H5.97654L1.8489 4.1957C2.17248 3.74116 2.53359 3.31567 2.92789 2.9234L2.92987 2.92132C3.32337 2.528 3.75083 2.16789 4.2067 1.84412L8.33414 5.96093V0.139061C8.87423 0.0487751 9.42882 0.00103777 9.99474 0H10.0063ZM10.0053 7.48127H9.99573C9.25283 7.48127 8.54132 7.61722 7.88364 7.8642C7.63713 8.51904 7.50067 9.22886 7.49968 9.96983V9.97917C7.50067 10.7201 7.63713 11.43 7.88463 12.0848C8.54132 12.3318 9.25283 12.4678 9.99573 12.4678H10.0053C10.7482 12.4678 11.4597 12.3318 12.1164 12.0848C12.3639 11.4289 12.5003 10.7201 12.5003 9.97917V9.96983C12.5003 9.22886 12.3639 8.51904 12.1164 7.8642C11.4597 7.61722 10.7482 7.48127 10.0053 7.48127Z" fill="#9FA2A6"/>
</g>
<defs>
<clipPath id="clip0_10683_74286">
<rect width="20" height="20" fill="white"/>
</clipPath>
</defs>
</svg>
